<svg xmlns="http://www.w3.org/2000/svg" fill="none" viewBox="0 0 120 55">
  <path fill="#141E55" d="M0 0h120v55H0z"/>
  <path fill="#fff" d="M35.36 33.02h4.88v1.48h-6.7V20.56h1.82v12.46Zm13.133 1.62c-1.294 0-2.474-.3-3.54-.9a6.829 6.829 0 0 1-2.54-2.54c-.613-1.093-.92-2.32-.92-3.68 0-1.36.306-2.58.92-3.66a6.64 6.64 0 0 1 2.54-2.54c1.066-.613 2.246-.92 3.54-.92 1.306 0 2.493.307 3.56.92a6.538 6.538 0 0 1 2.52 2.52c.613 1.08.92 2.307.92 3.68 0 1.373-.307 2.6-.92 3.68a6.681 6.681 0 0 1-2.52 2.54c-1.067.6-2.253.9-3.56.9Zm0-1.58c.973 0 1.846-.227 2.62-.68a4.7 4.7 0 0 0 1.84-1.94c.453-.84.68-1.813.68-2.92 0-1.12-.227-2.093-.68-2.92-.44-.84-1.047-1.487-1.82-1.94-.774-.453-1.654-.68-2.64-.68-.987 0-1.867.227-2.64.68-.773.453-1.387 1.1-1.84 1.94-.44.827-.66 1.8-.66 2.92 0 1.107.22 2.08.66 2.92.453.84 1.067 1.487 1.84 1.94.786.453 1.666.68 2.64.68Zm19.962-8.46c-.386-.813-.946-1.44-1.68-1.88-.733-.453-1.586-.68-2.56-.68-.973 0-1.853.227-2.64.68-.773.44-1.386 1.08-1.84 1.92-.44.827-.66 1.787-.66 2.88s.22 2.053.66 2.88a4.907 4.907 0 0 0 1.84 1.92c.787.44 1.667.66 2.64.66 1.36 0 2.48-.407 3.36-1.22.88-.813 1.394-1.913 1.54-3.3h-5.56v-1.48h7.5v1.4a6.988 6.988 0 0 1-1.08 3.16 6.79 6.79 0 0 1-2.42 2.26c-1 .547-2.113.82-3.34.82-1.293 0-2.473-.3-3.54-.9a6.828 6.828 0 0 1-2.54-2.54c-.613-1.08-.92-2.3-.92-3.66 0-1.36.307-2.58.92-3.66a6.64 6.64 0 0 1 2.54-2.54c1.067-.613 2.247-.92 3.54-.92 1.48 0 2.787.367 3.92 1.1 1.147.733 1.98 1.767 2.5 3.1h-2.18Zm11.327 10.04c-1.293 0-2.474-.3-3.54-.9a6.828 6.828 0 0 1-2.54-2.54c-.614-1.093-.92-2.32-.92-3.68 0-1.36.306-2.58.92-3.66a6.64 6.64 0 0 1 2.54-2.54c1.066-.613 2.246-.92 3.54-.92 1.306 0 2.493.307 3.56.92a6.54 6.54 0 0 1 2.52 2.52c.613 1.08.92 2.307.92 3.68 0 1.373-.307 2.6-.92 3.68a6.683 6.683 0 0 1-2.52 2.54c-1.067.6-2.254.9-3.56.9Zm0-1.58c.973 0 1.847-.227 2.62-.68a4.7 4.7 0 0 0 1.84-1.94c.453-.84.68-1.813.68-2.92 0-1.12-.227-2.093-.68-2.92-.44-.84-1.047-1.487-1.82-1.94-.773-.453-1.653-.68-2.64-.68-.987 0-1.867.227-2.64.68-.773.453-1.387 1.1-1.84 1.94-.44.827-.66 1.8-.66 2.92 0 1.107.22 2.08.66 2.92.453.84 1.066 1.487 1.84 1.94.787.453 1.666.68 2.64.68Z"/>
</svg>
