<svg xmlns="http://www.w3.org/2000/svg" fill="none" viewBox="0 0 151 55">
  <path fill="#141E55" d="M0 0h151v55H0z"/>
  <path fill="#fff" d="M36.376 35.632h7.808V38h-10.72V15.696h2.912v19.936Zm21.013 2.592c-2.07 0-3.958-.48-5.665-1.44a10.926 10.926 0 0 1-4.063-4.064c-.982-1.75-1.473-3.712-1.473-5.888 0-2.176.491-4.128 1.472-5.856 1.003-1.75 2.358-3.104 4.065-4.064 1.706-.981 3.594-1.472 5.663-1.472 2.091 0 3.99.49 5.697 1.472 1.706.96 3.05 2.304 4.032 4.032.98 1.728 1.471 3.69 1.471 5.888 0 2.197-.49 4.16-1.471 5.888a10.69 10.69 0 0 1-4.033 4.064c-1.706.96-3.605 1.44-5.696 1.44Zm0-2.528c1.557 0 2.954-.363 4.191-1.088 1.26-.725 2.24-1.76 2.945-3.104.725-1.344 1.087-2.901 1.087-4.672 0-1.792-.362-3.35-1.087-4.672-.705-1.344-1.675-2.379-2.913-3.104-1.237-.725-2.645-1.088-4.224-1.088-1.578 0-2.986.363-4.224 1.088-1.237.725-2.218 1.76-2.944 3.104-.703 1.323-1.056 2.88-1.056 4.672 0 1.77.352 3.328 1.056 4.672.726 1.344 1.707 2.379 2.944 3.104 1.26.725 2.667 1.088 4.224 1.088Zm31.94-13.536c-.619-1.301-1.515-2.304-2.688-3.008-1.174-.725-2.539-1.088-4.096-1.088-1.558 0-2.966.363-4.224 1.088-1.238.704-2.219 1.728-2.944 3.072-.704 1.323-1.056 2.859-1.056 4.608 0 1.75.352 3.285 1.056 4.608.725 1.323 1.706 2.347 2.944 3.072 1.258.704 2.666 1.056 4.224 1.056 2.176 0 3.968-.65 5.376-1.952 1.408-1.301 2.23-3.061 2.464-5.28h-8.896v-2.368h12v2.24a11.18 11.18 0 0 1-1.728 5.056 10.864 10.864 0 0 1-3.872 3.616c-1.6.875-3.382 1.312-5.344 1.312-2.07 0-3.958-.48-5.664-1.44a10.925 10.925 0 0 1-4.064-4.064c-.982-1.728-1.472-3.68-1.472-5.856 0-2.176.49-4.128 1.472-5.856 1.002-1.75 2.357-3.104 4.064-4.064 1.706-.981 3.594-1.472 5.664-1.472 2.368 0 4.458.587 6.272 1.76 1.834 1.173 3.168 2.827 4 4.96h-3.488Zm18.122 16.064c-2.069 0-3.957-.48-5.664-1.44a10.924 10.924 0 0 1-4.064-4.064c-.981-1.75-1.472-3.712-1.472-5.888 0-2.176.49-4.128 1.472-5.856 1.003-1.75 2.357-3.104 4.064-4.064 1.707-.981 3.595-1.472 5.664-1.472 2.091 0 3.989.49 5.696 1.472 1.707.96 3.051 2.304 4.032 4.032.981 1.728 1.472 3.69 1.472 5.888 0 2.197-.491 4.16-1.472 5.888a10.686 10.686 0 0 1-4.032 4.064c-1.707.96-3.605 1.44-5.696 1.44Zm0-2.528c1.557 0 2.955-.363 4.192-1.088 1.259-.725 2.24-1.76 2.944-3.104.725-1.344 1.088-2.901 1.088-4.672 0-1.792-.363-3.35-1.088-4.672-.704-1.344-1.675-2.379-2.912-3.104-1.237-.725-2.645-1.088-4.224-1.088-1.579 0-2.987.363-4.224 1.088-1.237.725-2.219 1.76-2.944 3.104-.704 1.323-1.056 2.88-1.056 4.672 0 1.77.352 3.328 1.056 4.672.725 1.344 1.707 2.379 2.944 3.104 1.259.725 2.667 1.088 4.224 1.088Z"/>
</svg>
