<svg xmlns="http://www.w3.org/2000/svg" fill="none" viewBox="0 0 85 85">
  <circle cx="42.5" cy="42.5" r="42" stroke="#192A32"/>
  <path fill="#192A32" d="M29.007 32.252V52.72h-4.092V36.91L20 38.454V35.27l8.566-3.017h.44Zm20.67 14.87c0 1.282-.303 2.362-.91 3.24-.605.87-1.439 1.53-2.5 1.979-1.05.44-2.244.659-3.58.659-1.335 0-2.533-.22-3.594-.66-1.06-.448-1.899-1.108-2.514-1.977-.616-.88-.924-1.96-.924-3.24 0-.861.176-1.637.526-2.33a5.28 5.28 0 0 1 1.463-1.795 6.7 6.7 0 0 1 2.23-1.15 9.153 9.153 0 0 1 2.785-.407c1.345 0 2.548.234 3.608.701 1.061.468 1.895 1.127 2.5 1.978.607.851.91 1.852.91 3.002Zm-4.12-.266c0-.627-.123-1.165-.37-1.614a2.476 2.476 0 0 0-1.008-1.052c-.436-.243-.942-.364-1.52-.364-.578 0-1.084.121-1.52.364a2.565 2.565 0 0 0-1.023 1.053c-.237.448-.355.986-.355 1.613 0 .617.118 1.15.355 1.599.246.449.587.795 1.023 1.038.445.234.961.35 1.548.35.588 0 1.094-.116 1.52-.35a2.41 2.41 0 0 0 .995-1.038c.237-.449.355-.982.355-1.6Zm3.68-9.147c0 1.038-.28 1.96-.839 2.764-.558.795-1.335 1.417-2.33 1.866-.984.449-2.111.673-3.38.673-1.28 0-2.416-.224-3.41-.673-.995-.45-1.771-1.071-2.33-1.866-.559-.804-.838-1.725-.838-2.764 0-1.234.28-2.272.838-3.114.568-.85 1.345-1.496 2.33-1.936.994-.44 2.121-.659 3.381-.659 1.279 0 2.41.22 3.395.66.995.439 1.771 1.084 2.33 1.935.568.842.853 1.88.853 3.114Zm-4.092.183c0-.552-.1-1.029-.298-1.431a2.214 2.214 0 0 0-.853-.954c-.36-.224-.805-.337-1.335-.337-.511 0-.952.108-1.321.323-.36.215-.64.528-.838.94-.19.402-.284.888-.284 1.459 0 .552.094 1.038.284 1.459.199.411.483.734.852.968.37.233.815.35 1.336.35.52 0 .96-.117 1.32-.35.37-.234.65-.557.839-.968.199-.421.298-.907.298-1.46ZM66 41.343v3.52H51.822v-3.52H66Zm-5.143-5.541v14.87H56.98v-14.87h3.878Z"/>
</svg>
