<svg xmlns="http://www.w3.org/2000/svg" fill="none" viewBox="0 0 144 23">
  <path fill="#FFC512" stroke="#FFC512" stroke-width="3" d="m12 4.048 1.872 4.693.35.876.94.064 5.036.346-3.88 3.27-.716.602.226.908 1.228 4.927-4.255-2.69-.801-.506-.801.506-4.255 2.69 1.228-4.927.226-.908-.715-.602-3.88-3.27 5.034-.346.941-.064.35-.876L12 4.048Zm30 0 1.872 4.693.35.876.94.064 5.036.346-3.88 3.27-.716.602.226.908 1.228 4.927-4.255-2.69-.801-.506-.801.506-4.255 2.69 1.228-4.927.226-.908-.715-.602-3.88-3.27 5.034-.346.941-.064.35-.876L42 4.048Zm30 0 1.872 4.693.35.876.94.064 5.036.346-3.88 3.27-.716.602.226.908 1.228 4.927-4.255-2.69-.801-.506-.801.506-4.255 2.69 1.228-4.927.226-.908-.715-.602-3.88-3.27 5.034-.346.941-.064.35-.876L72 4.048Zm30 0 1.872 4.693.35.876.941.064 5.035.346-3.881 3.27-.715.602.226.908 1.228 4.927-4.255-2.69-.801-.506-.801.506-4.255 2.69 1.228-4.927.226-.908-.715-.602-3.88-3.27 5.034-.346.941-.064.35-.876L102 4.048Zm30 0 1.872 4.693.35.876.941.064 5.035.346-3.881 3.27-.715.602.226.908 1.228 4.927-4.255-2.69-.801-.506-.801.506-4.255 2.69 1.228-4.927.226-.908-.715-.602-3.881-3.27 5.035-.346.941-.064.35-.876L132 4.048Z"/>
</svg>
