<svg xmlns="http://www.w3.org/2000/svg"
     xmlns:xlink="http://www.w3.org/1999/xlink" fill="none">

    <symbol viewBox="0 0 24 24" id="box">
        <path fill="none" stroke="currentColor" stroke-linecap="round"
              stroke-linejoin="round" stroke-width="2"
              d="M19 11v10H3V11m8 10V6m0 0H6.5a2.5 2.5 0 1 1 0-5C10 1 11 6 11 6Zm0 0h4.5a2.5 2.5 0 0 0 0-5C12 1 11 6 11 6ZM1 6h20v5H1V6Z"/>
    </symbol>
    <symbol viewBox="0 0 16 22" id="phone">
        <path stroke="currentColor" fill="none" stroke-linecap="round"
              stroke-linejoin="round" stroke-width="2"
              d="M8 17h.01M3 1h10a2 2 0 0 1 2 2v16a2 2 0 0 1-2 2H3a2 2 0 0 1-2-2V3a2 2 0 0 1 2-2Z"/>
    </symbol>
    <symbol viewBox="0 0 16 20" id="apple">
        <path fill="currentColor"
              d="M13.377 10.57c-.01-1.64.698-2.876 2.126-3.787-.799-1.201-2.007-1.863-3.6-1.99-1.509-.125-3.16.923-3.763.923-.639 0-2.1-.88-3.248-.88C2.52 4.875 0 6.822 0 10.783c0 1.17.204 2.38.611 3.625.545 1.64 2.509 5.656 4.558 5.591 1.07-.026 1.828-.798 3.222-.798 1.353 0 2.054.798 3.248.798 2.067-.031 3.844-3.682 4.361-5.326-2.772-1.373-2.623-4.02-2.623-4.104ZM10.97 3.237C12.131 1.79 12.026.474 11.992 0c-1.026.062-2.211.733-2.886 1.558-.744.884-1.182 1.978-1.088 3.211 1.108.089 2.12-.51 2.953-1.531Z"/>
    </symbol>
    <symbol viewBox="0 0 18 21" id="droid">
        <path fill="currentColor"
              d="M3.329 15.884a1 1 0 0 0 .999.996h1.141v2.822c0 .714.575 1.298 1.28 1.298.708 0 1.28-.581 1.28-1.298v-2.825h1.993V19.7c0 .715.575 1.299 1.28 1.299a1.29 1.29 0 0 0 1.28-1.299v-2.822h1.142a1 1 0 0 0 .999-.995V6.619H3.329v9.265ZM11.701 1.82 12.753.296c.061-.089.047-.208-.035-.267-.082-.056-.2-.028-.26.061l-1.092 1.584a6.45 6.45 0 0 0-2.364-.44 6.45 6.45 0 0 0-2.363.44L5.547.092c-.061-.089-.178-.12-.26-.06-.083.056-.097.173-.036.267l1.053 1.523C4.63 2.6 3.458 4.074 3.308 5.797H14.7c-.154-1.725-1.329-3.2-3-3.977ZM6.597 4.222a.63.63 0 1 1 0-1.262.63.63 0 0 1 0 1.262Zm4.886 0a.63.63 0 1 1 0-1.261.63.63 0 0 1 0 1.26Zm5.237 2.36c-.708 0-1.28.581-1.28 1.298v5.072a1.29 1.29 0 0 0 1.28 1.298c.708 0 1.28-.58 1.28-1.298V7.878a1.284 1.284 0 0 0-1.28-1.296Zm-15.44 0C.572 6.582 0 7.163 0 7.88v5.072a1.29 1.29 0 0 0 1.28 1.298c.708 0 1.28-.58 1.28-1.298V7.878c0-.717-.574-1.296-1.28-1.296Z"/>
    </symbol>
    <symbol viewBox="0 0 32 28" id="king">
        <path fill="currentColor"
              d="M8 22h17v2H8v-2Zm1-6 1.42-1.408L11.84 16l-1.42 1.408L9 16Zm11 0 1.42-1.408L22.84 16l-1.42 1.408L20 16Zm-8-1.5 3.5 4.5 3.5-4.5-3.5-4.5-3.5 4.5Zm3.5 1.492L14.34 14.5l1.16-1.492 1.16 1.492-1.16 1.492Z"/>
        <path fill="currentColor"
              d="M32 10.266c0-1.543-1.265-2.797-2.82-2.797-1.539 0-2.793 1.228-2.82 2.748l-1.842.608a3.123 3.123 0 0 1-3.689-1.412L18.12 4.638c.436-.492.7-1.136.7-1.841C18.82 1.255 17.555 0 16 0s-2.82 1.255-2.82 2.797c0 .705.264 1.349.7 1.841l-2.71 4.775a3.123 3.123 0 0 1-3.688 1.412l-1.843-.608c-.026-1.52-1.28-2.748-2.819-2.748C1.265 7.469 0 8.723 0 10.266c0 1.408 1.055 2.576 2.423 2.768l1.137 5.638H2.45v1.86h1.316v5.609H2.45V28h27.1v-1.86h-1.316v-5.609h1.316v-1.86h-1.11l1.137-5.637c1.368-.192 2.423-1.36 2.423-2.768Zm-2.82-.938c.52 0 .945.42.945.938a.942.942 0 0 1-.945.937.942.942 0 0 1-.946-.937c0-.517.424-.938.946-.938ZM16 1.86c.521 0 .945.421.945.938a.942.942 0 0 1-.945.937.942.942 0 0 1-.945-.937c0-.517.424-.938.945-.938ZM1.875 10.266c0-.517.424-.938.945-.938.522 0 .946.42.946.938a.942.942 0 0 1-.946.937.942.942 0 0 1-.945-.937ZM26.359 26.14H5.641v-5.61h20.718v5.61ZM5.472 18.67l-1.21-6.002c.302-.18.568-.414.784-.689l1.844.61c2.149.736 4.769-.189 5.915-2.265l2.708-4.774a2.846 2.846 0 0 0 .974 0l2.708 4.774c1.167 2.068 3.671 2.997 5.916 2.264l1.843-.608c.216.274.482.509.785.688l-1.21 6.003H5.472Z"/>
    </symbol>
    <symbol viewBox="0 0 32 21" id="complaints">
        <path fill="currentColor"
              d="M17 10h2v2h-2v-2Zm4 0h2v2h-2v-2Zm-8 0h2v2h-2v-2Zm-4 0h2v2H9v-2Z"/>
        <path fill="currentColor"
              d="M21.648 0H10.352C4.644 0 0 4.71 0 10.5S4.644 21 10.352 21h11.296C27.356 21 32 16.29 32 10.5S27.356 0 21.648 0ZM11.29 17.18h3.774v1.918H11.29V17.18Zm5.649 0h3.773v1.918h-3.773V17.18Zm4.71-1.902H10.352c-2.598 0-4.711-2.143-4.711-4.778s2.113-4.778 4.71-4.778h11.297c2.598 0 4.711 2.143 4.711 4.778s-2.113 4.778-4.71 4.778ZM16.938 3.82V1.902h3.773V3.82h-3.773Zm-1.875 0h-3.774V1.902h3.774V3.82ZM1.874 10.5c0-4.42 3.305-8.07 7.54-8.545v1.933c-3.19.463-5.65 3.251-5.65 6.612 0 3.36 2.46 6.15 5.65 6.612v1.933c-4.235-.475-7.54-4.125-7.54-8.545Zm20.71 8.545v-1.933c3.19-.463 5.65-3.251 5.65-6.612 0-3.36-2.46-6.15-5.65-6.612V1.955c4.235.475 7.54 4.125 7.54 8.545s-3.305 8.07-7.54 8.545Z"/>
    </symbol>

    <symbol viewBox="0 0 22 22" id="globe">
        <path fill="none" stroke="currentColor" stroke-linecap="round"
              stroke-linejoin="round" stroke-width="2"
              d="M21 11c0 5.523-4.477 10-10 10m10-10c0-5.523-4.477-10-10-10m10 10H1m10 10C5.477 21 1 16.523 1 11m10 10a15.3 15.3 0 0 0 4-10 15.3 15.3 0 0 0-4-10m0 20a15.3 15.3 0 0 1-4-10 15.3 15.3 0 0 1 4-10M1 11C1 5.477 5.477 1 11 1"/>
    </symbol>
    <symbol viewBox="0 0 24 24" id="card">
        <path fill="none" stroke="currentColor" stroke-linecap="round"
              stroke-linejoin="round" stroke-width="2"
              d="M1 10h22M3 4h18a2 2 0 0 1 2 2v12a2 2 0 0 1-2 2H3a2 2 0 0 1-2-2V6a2 2 0 0 1 2-2Z"/>
    </symbol>
    <symbol viewBox="0 0 24 24" id="chat">
        <path fill="currentColor"
              d="M5 18.178V22l1.515-.922 4.762-2.9H16c1.103 0 2-.91 2-2.03V8.03C18 6.91 17.103 6 16 6H4c-1.103 0-2 .91-2 2.03v8.118c0 1.12.897 2.03 2 2.03h1ZM4 8.03h12v8.118h-5.277L7 18.416v-2.268H4V8.03Z"/>
        <path fill="currentColor"
              d="M20 2H8c-1.103 0-2 .897-2 2h12c1.103 0 2 .897 2 2v8c1.103 0 2-.897 2-2V4c0-1.103-.897-2-2-2Z"/>
    </symbol>
    <symbol viewBox="0 0 40 40" id="play">
        <circle cx="20" cy="20" r="20" fill="currentColor"/>
        <path fill="#EC622B"
              d="M15.636 28a.642.642 0 0 1-.45-.183.619.619 0 0 1-.186-.442v-13.75a.617.617 0 0 1 .313-.538.645.645 0 0 1 .63-.01l12.728 6.875c.1.054.183.134.24.23a.617.617 0 0 1-.24.866l-12.728 6.875a.645.645 0 0 1-.307.077Z"/>
    </symbol>
    <symbol viewBox="0 0 40 40" id="playRev">
        <circle cx="20" cy="20" r="20" fill="#EC622B"/>
        <path fill="currentColor"
              d="M15.636 28a.642.642 0 0 1-.45-.183.619.619 0 0 1-.186-.442v-13.75a.617.617 0 0 1 .313-.538.645.645 0 0 1 .63-.01l12.728 6.875c.1.054.183.134.24.23a.617.617 0 0 1-.24.866l-12.728 6.875a.645.645 0 0 1-.307.077Z"/>
    </symbol>
    <symbol viewBox="0 0 24 24" id="email">
        <path fill="currentColor"
              d="M20 20H4a2 2 0 0 1-2-2V5.913A2 2 0 0 1 4 4h16a2 2 0 0 1 2 2v12a2 2 0 0 1-2 2ZM4 7.868V18h16V7.868L12 13.2 4 7.868ZM4.8 6l7.2 4.8L19.2 6H4.8Z"/>
    </symbol>
    <symbol viewBox="0 0 24 24" id="tel">
        <path fill="none" stroke="currentColor" stroke-linecap="round"
              stroke-linejoin="round" stroke-width="2"
              d="M10.554 6.24 7.171 2.337c-.39-.45-1.105-.448-1.558.006L2.831 5.129c-.828.829-1.065 2.06-.586 3.047a29.206 29.206 0 0 0 13.561 13.579c.986.479 2.216.242 3.044-.587l2.808-2.813c.455-.455.456-1.174.002-1.564l-3.92-3.365c-.41-.352-1.047-.306-1.458.106l-1.364 1.366a.462.462 0 0 1-.553.088 14.556 14.556 0 0 1-5.36-5.366.463.463 0 0 1 .088-.554l1.36-1.361c.412-.414.457-1.054.101-1.465v0Z"/>
    </symbol>
    <symbol viewBox="0 0 24 24" id="colorPin">
        <path fill="#34A853"
              d="M9 17.942c.687.862 1.312 1.77 1.871 2.718.477.891.676 1.496 1.025 2.57.214.593.407.77.823.77.453 0 .658-.301.817-.767.33-1.014.588-1.788.997-2.52.8-1.412 1.796-2.666 2.773-3.872.265-.341 1.976-2.33 2.747-3.898 0 0 .947-1.724.947-4.13C21 6.56 20.066 5 20.066 5l-2.689.71-1.633 4.235-.404.584-.08.106-.108.132-.188.212-.27.265-1.454 1.167-3.635 2.067L9 17.942Z"/>
        <path fill="#FBBC04"
              d="M5 11.794c.896 1.964 2.623 3.69 3.792 5.206L15 9.94s-.875 1.099-2.461 1.099c-1.767 0-3.195-1.355-3.195-3.063 0-1.171.734-1.976.734-1.976L5.864 7.084 5 11.794Z"/>
        <path fill="#4285F4"
              d="M15.048 0C17.134.663 18.92 2.054 20 4.106L14.98 10s.742-.85.742-2.06c0-1.815-1.55-3.171-3.227-3.171C10.91 4.769 10 5.907 10 5.907V2.194L15.048 0Z"/>
        <path fill="#1A73E8"
              d="M6 2.845C7.242 1.443 9.426 0 12.438 0 13.899 0 15 .362 15 .362L9.971 6H6.408L6 2.845Z"/>
        <path fill="#EA4335"
              d="M4.838 12S4 10.447 4 8.197C4 6.071 4.873 4.212 5.994 3L10 6.192 4.838 12Z"/>
    </symbol>
    <symbol viewBox="0 0 18 22" id="pin">
        <path fill="none" stroke="currentColor" stroke-linecap="round"
              stroke-linejoin="round" stroke-width="2"
              d="M9 12a3 3 0 1 0 0-6 3 3 0 0 0 0 6Z"/>
        <path fill="none" stroke="currentColor" stroke-linecap="round"
              stroke-linejoin="round" stroke-width="2"
              d="M9 1a8 8 0 0 0-8 8c0 1.892.402 3.13 1.5 4.5L9 21l6.5-7.5C16.598 12.13 17 10.892 17 9a8 8 0 0 0-8-8v0Z"/>
    </symbol>
    <symbol viewBox="0 0 25 24" id="shevron">
        <path fill="currentColor"
              d="M4.741 7.246a.811.811 0 0 1 1.072-.081l.092.08 6.595 6.728 6.595-6.727a.811.811 0 0 1 1.072-.081l.092.08a.852.852 0 0 1 .08 1.094l-.08.094-7.177 7.321a.811.811 0 0 1-1.072.081l-.092-.08-7.177-7.322a.852.852 0 0 1 0-1.187Z"/>
    </symbol>
    <symbol viewBox="0 0 24 24" id="grid">
        <path fill="none" stroke="currentColor" stroke-linecap="round"
              stroke-linejoin="round" stroke-width="2"
              d="M10 3H3v7h7V3Zm11 0h-7v7h7V3Zm0 11h-7v7h7v-7Zm-11 0H3v7h7v-7Z"/>
    </symbol>
    <symbol viewBox="0 0 24 24" id="lifebuoy">
        <path fill="none" stroke="currentColor" stroke-linecap="round"
              stroke-linejoin="round"
              stroke-width="2"
              d="m4.93 4.93 4.24 4.24m5.66 5.66 4.24 4.24m0-14.14-4.24 4.24 3.53-3.53M4.93 19.07l4.24-4.24M22 12c0 5.523-4.477 10-10 10S2 17.523 2 12 6.477 2 12 2s10 4.477 10 10Zm-6 0a4 4 0 1 1-8 0 4 4 0 0 1 8 0Z"/>
    </symbol>
    <symbol viewBox="0 0 24 24" id="watch">
        <path fill="none" stroke="currentColor" stroke-linecap="round"
              stroke-linejoin="round"
              stroke-width="2"
              d="M12 9v3l1.5 1.5m3.01 3.85-.35 3.83a2 2 0 0 1-2 1.82H9.83a2 2 0 0 1-2-1.82l-.35-3.83m.01-10.7.35-3.83A2 2 0 0 1 9.83 1h4.35a2 2 0 0 1 2 1.82l.35 3.83M19 12a7 7 0 1 1-14 0 7 7 0 0 1 14 0Z"/>
    </symbol>
    <symbol viewBox="0 0 24 24" id="radio">
        <path fill="none"
              d="M16.2398 7.75999C16.7977 8.31723 17.2402 8.97896 17.5422 9.70735C17.8441 10.4357 17.9995 11.2165 17.9995 12.005C17.9995 12.7935 17.8441 13.5742 17.5422 14.3026C17.2402 15.031 16.7977 15.6928 16.2398 16.25M7.75982 16.24C7.20196 15.6828 6.75941 15.021 6.45746 14.2926C6.15551 13.5642 6.0001 12.7835 6.0001 11.995C6.0001 11.2065 6.15551 10.4257 6.45746 9.69735C6.75941 8.96896 7.20196 8.30723 7.75982 7.74999M19.0698 4.92999C20.9445 6.80527 21.9977 9.34835 21.9977 12C21.9977 14.6516 20.9445 17.1947 19.0698 19.07M4.92982 19.07C3.05511 17.1947 2.00195 14.6516 2.00195 12C2.00195 9.34835 3.05511 6.80527 4.92982 4.92999M13.9998 12C13.9998 13.1046 13.1044 14 11.9998 14C10.8952 14 9.99982 13.1046 9.99982 12C9.99982 10.8954 10.8952 9.99999 11.9998 9.99999C13.1044 9.99999 13.9998 10.8954 13.9998 12Z"
              stroke="currentColor" stroke-width="2" stroke-linecap="round"
              stroke-linejoin="round"/>
    </symbol>
    <symbol viewBox="0 0 24 24" id="command">
        <path fill="none"
              d="M18 3C17.2044 3 16.4413 3.31607 15.8787 3.87868C15.3161 4.44129 15 5.20435 15 6V18C15 18.7956 15.3161 19.5587 15.8787 20.1213C16.4413 20.6839 17.2044 21 18 21C18.7956 21 19.5587 20.6839 20.1213 20.1213C20.6839 19.5587 21 18.7956 21 18C21 17.2044 20.6839 16.4413 20.1213 15.8787C19.5587 15.3161 18.7956 15 18 15H6C5.20435 15 4.44129 15.3161 3.87868 15.8787C3.31607 16.4413 3 17.2044 3 18C3 18.7956 3.31607 19.5587 3.87868 20.1213C4.44129 20.6839 5.20435 21 6 21C6.79565 21 7.55871 20.6839 8.12132 20.1213C8.68393 19.5587 9 18.7956 9 18V6C9 5.20435 8.68393 4.44129 8.12132 3.87868C7.55871 3.31607 6.79565 3 6 3C5.20435 3 4.44129 3.31607 3.87868 3.87868C3.31607 4.44129 3 5.20435 3 6C3 6.79565 3.31607 7.55871 3.87868 8.12132C4.44129 8.68393 5.20435 9 6 9H18C18.7956 9 19.5587 8.68393 20.1213 8.12132C20.6839 7.55871 21 6.79565 21 6C21 5.20435 20.6839 4.44129 20.1213 3.87868C19.5587 3.31607 18.7956 3 18 3Z"
              stroke="currentColor" stroke-width="2" stroke-linecap="round"
              stroke-linejoin="round"/>
    </symbol>
    <symbol viewBox="0 0 24 24" id="cpu">
        <g clip-path="url(#aaaaa)" fill="none">
            <path stroke="currentColor" stroke-linecap="round"
                  stroke-linejoin="round"
                  stroke-width="2"
                  d="M9 1v3m6-3v3M9 20v3m6-3v3m5-14h3m-3 5h3M1 9h3m-3 5h3M6 4h12a2 2 0 0 1 2 2v12a2 2 0 0 1-2 2H6a2 2 0 0 1-2-2V6a2 2 0 0 1 2-2Zm3 5h6v6H9V9Z"/>
        </g>
        <defs>
            <clipPath id="aaaaa">
                <path fill="#fff" d="M0 0h24v24H0z"/>
            </clipPath>
        </defs>
    </symbol>
    <symbol viewBox="0 0 24 24" id="dollarSign">
        <path fill="none"
              d="M12 1V23M17 5H9.5C8.57174 5 7.6815 5.36875 7.02513 6.02513C6.36875 6.6815 6 7.57174 6 8.5C6 9.42826 6.36875 10.3185 7.02513 10.9749C7.6815 11.6313 8.57174 12 9.5 12H14.5C15.4283 12 16.3185 12.3687 16.9749 13.0251C17.6313 13.6815 18 14.5717 18 15.5C18 16.4283 17.6313 17.3185 16.9749 17.9749C16.3185 18.6313 15.4283 19 14.5 19H6"
              stroke="currentColor" stroke-width="2" stroke-linecap="round"
              stroke-linejoin="round"/>
    </symbol>
    <symbol viewBox="0 0 25 24" id="gitlab">
        <path fill="none"
              d="M22.6501 14.39L12.0001 22.13L1.35014 14.39C1.20737 14.285 1.10146 14.1375 1.04758 13.9687C0.993694 13.7999 0.994592 13.6183 1.05014 13.45L2.27014 9.67L4.71014 2.16C4.73381 2.09881 4.77148 2.04401 4.82014 2C4.89938 1.92762 5.00282 1.88749 5.11014 1.88749C5.21746 1.88749 5.32091 1.92762 5.40014 2C5.45153 2.04966 5.48939 2.11162 5.51014 2.18L7.95014 9.67H16.0501L18.4901 2.16C18.5138 2.09881 18.5515 2.04401 18.6001 2C18.6794 1.92762 18.7828 1.88749 18.8901 1.88749C18.9975 1.88749 19.1009 1.92762 19.1801 2C19.2315 2.04966 19.2694 2.11162 19.2901 2.18L21.7301 9.69L23.0001 13.45C23.0507 13.6235 23.0439 13.8086 22.9809 13.978C22.9178 14.1473 22.8018 14.2918 22.6501 14.39V14.39Z"
              stroke="currentColor" stroke-width="2" stroke-linecap="round"
              stroke-linejoin="round"/>
    </symbol>
    <symbol></symbol>
    <symbol></symbol>

</svg>
